<svg xmlns="http://www.w3.org/2000/svg" viewBox="0 0 320 320"><defs><linearGradient id="g" x1="0" y1="0" x2="1" y2="1"><stop stop-color="#35c98b"/><stop offset="1" stop-color="#006b4a"/></linearGradient><filter id="f"><feDropShadow dx="0" dy="14" stdDeviation="9" flood-opacity=".22"/></filter></defs><g filter="url(#f)"><g transform="rotate(-12 125 165)"><rect x="48" y="82" width="125" height="166" rx="18" fill="url(#g)"/><path d="M82 151c12-24 47-24 59 0 12-24 47-24 59 0 0 39-59 64-59 64s-59-25-59-64Z" fill="#ffd044"/></g><g transform="rotate(12 208 150)"><rect x="146" y="69" width="125" height="166" rx="18" fill="#fff7df"/><path d="M180 138c12-24 47-24 59 0 12-24 47-24 59 0 0 39-59 64-59 64s-59-25-59-64Z" fill="#f4ad1b"/></g></g></svg>