<svg xmlns="http://www.w3.org/2000/svg" viewBox="0 0 320 320"><defs><linearGradient id="g" x1="0" y1="0" x2="1" y2="1"><stop stop-color="#21b77a"/><stop offset="1" stop-color="#006b4a"/></linearGradient><linearGradient id="y" x1="0" y1="0" x2="1" y2="1"><stop stop-color="#ffe36e"/><stop offset="1" stop-color="#f5a900"/></linearGradient><filter id="s"><feDropShadow dx="0" dy="14" stdDeviation="10" flood-opacity=".22"/></filter></defs><g filter="url(#s)" transform="rotate(-8 160 160)"><path d="M70 118h112c28 0 54 15 70 40l25 39-23 35H123c-35 0-57-18-65-49l-10-39c-5-19 3-26 22-26Z" fill="url(#g)"/><path d="M65 190c22 15 42 22 69 22h137l-14 29H118c-29 0-50-10-62-30Z" fill="#fff7df"/><path d="M88 130c19-34 42-50 69-50h42c-15 14-25 31-28 50Z" fill="#31c88c"/><path d="M151 139l42 34" stroke="#ffd34d" stroke-width="12" stroke-linecap="round"/><path d="M205 128h35M211 148h35M216 168h34" stroke="#ffd34d" stroke-width="10" stroke-linecap="round"/><path d="M22 143h65M14 174h62M20 205h58" stroke="url(#y)" stroke-width="11" stroke-linecap="round"/></g></svg>